<svg width="47" height="47" viewBox="0 0 47 47" fill="none" xmlns="http://www.w3.org/2000/svg">
<g clip-path="url(#clip0_137_166)">
<path fill-rule="evenodd" clip-rule="evenodd" d="M0.939999 6.58669C0.939999 6.21405 1.12128 5.63662 1.927 4.88462C2.73271 4.13262 4.0185 3.35712 5.77764 2.66219C9.28921 1.27905 14.2779 0.375977 19.8978 0.375977C25.5176 0.375977 30.5064 1.27905 34.0179 2.66219C35.7804 3.35712 37.0629 4.13262 37.8686 4.88462C38.6743 5.63662 38.8589 6.21405 38.8589 6.58669C38.8589 6.95933 38.6743 7.53676 37.8686 8.2854C37.0629 9.04076 35.7804 9.81291 34.0179 10.5078C30.5097 11.8943 25.5176 12.7974 19.8978 12.7974C14.2779 12.7974 9.28921 11.891 5.77764 10.5078C4.0185 9.81291 2.73607 9.04076 1.927 8.2854C1.12128 7.53676 0.939999 6.95933 0.939999 6.58669ZM39.2853 12.4953C38.2009 13.2338 36.9353 13.8717 35.5589 14.4122C31.4464 16.0337 25.9104 16.9938 19.8978 16.9938C13.8851 16.9938 8.34921 16.0337 4.24007 14.4122C2.93273 13.9102 1.68336 13.2686 0.513641 12.4986V21.1735C0.64457 21.4857 0.909784 21.8718 1.40664 22.325C2.23921 23.0837 3.56193 23.8625 5.37814 24.5608C8.99043 25.9507 14.1235 26.8538 19.8978 26.8538C20.8087 26.8538 21.7006 26.8314 22.5734 26.7866C24.3645 24.1311 26.9275 22.0894 29.9162 20.9372C32.9049 19.7851 36.1752 19.5781 39.2853 20.3443V12.4953ZM19.8978 31.0535L20.5524 31.0502C20.1171 32.5101 19.8954 34.0253 19.8944 35.5488C19.8944 37.647 20.3074 39.6445 21.056 41.4708C20.671 41.4819 20.285 41.4875 19.8978 41.4875C9.1885 41.4875 0.513641 37.7611 0.513641 33.1786V26.8538C1.51407 27.4681 2.64878 28.0053 3.87078 28.4753C8.07393 30.0934 13.7408 31.0502 19.8978 31.0502V31.0535ZM35.5454 47C38.5834 47 41.4969 45.7932 43.645 43.645C45.7932 41.4969 47 38.5833 47 35.5454C47 32.5075 45.7932 29.5939 43.645 27.4458C41.4969 25.2976 38.5834 24.0908 35.5454 24.0908C32.5075 24.0908 29.594 25.2976 27.4458 27.4458C25.2977 29.5939 24.0909 32.5075 24.0909 35.5454C24.0909 38.5833 25.2977 41.4969 27.4458 43.645C29.594 45.7932 32.5075 47 35.5454 47ZM28.4417 35.5454C28.4417 34.3872 29.3817 33.4472 30.5399 33.4472H40.5509C41.1074 33.4472 41.6411 33.6682 42.0346 34.0617C42.4281 34.4552 42.6491 34.9889 42.6491 35.5454C42.6491 36.1019 42.4281 36.6356 42.0346 37.0291C41.6411 37.4226 41.1074 37.6436 40.5509 37.6436H30.5399C29.9834 37.6436 29.4498 37.4226 29.0563 37.0291C28.6628 36.6356 28.4417 36.1019 28.4417 35.5454Z" fill="#39DB7D"/>
</g>
<defs>
<clipPath id="clip0_137_166">
<rect width="47" height="47" fill="white"/>
</clipPath>
</defs>
</svg>
