<svg width="43" height="52" viewBox="0 0 43 52" fill="none" xmlns="http://www.w3.org/2000/svg">
<path fill-rule="evenodd" clip-rule="evenodd" d="M30.853 12.5708C31.0876 12.6483 31.2664 12.8461 31.3244 13.0924L31.3246 13.0924C31.5021 13.8464 35.5991 31.6437 29.4912 39.7971C29.4533 39.8477 29.4089 39.893 29.3594 39.9318C27.4891 41.2473 25.2829 41.9666 23.0166 42C20.8606 41.9873 18.7634 41.2753 17.0243 39.9649C16.9037 39.8855 16.7909 39.7939 16.6878 39.6913H16.688C12.1341 37.0715 10.2763 31.1265 10.199 30.8731C10.1713 30.7823 10.1613 30.6868 10.1694 30.592V30.5923C10.569 25.899 13.0559 23.2561 13.7148 22.6322C13.8409 19.7866 14.128 16.6074 14.5727 13.1679C14.6087 12.8892 14.7974 12.6568 15.0578 12.5708L22.7386 10.0349C22.8794 9.98837 23.0308 9.98837 23.1716 10.0349L30.853 12.5708ZM21.4216 14.9024C21.1273 15.235 20.9637 15.6681 20.9623 16.1175L20.9623 22.5678C20.9628 23.0498 21.1496 23.5122 21.4814 23.8533C21.813 24.1943 22.2629 24.386 22.7322 24.3865H23.0861C23.5554 24.386 24.005 24.1943 24.3369 23.8533C24.6687 23.5123 24.8552 23.0499 24.856 22.5678V16.1175C24.8545 15.6681 24.6908 15.235 24.3966 14.9024C24.1022 14.5697 23.6983 14.3611 23.2631 14.3171V12.5083C23.2631 12.3073 23.1046 12.1446 22.909 12.1446C22.7137 12.1446 22.5551 12.3073 22.5551 12.5083V14.3171C22.1197 14.3611 21.7158 14.5697 21.4216 14.9024ZM21.932 29.1818C22.0216 29.1533 22.0967 29.0892 22.1403 29.0037C22.1842 28.9184 22.1932 28.8188 22.1654 28.7267C22.1377 28.6344 22.0754 28.5574 21.9924 28.5126L16.6453 25.6139C16.4725 25.5206 16.259 25.5888 16.1679 25.7664C16.0769 25.9438 16.1428 26.1635 16.3151 26.2573L21.6622 29.1559C21.7452 29.201 21.8424 29.2103 21.932 29.1818ZM22.909 37.3533C23.1045 37.3533 23.2631 37.1903 23.2631 36.9893V31.1919C23.2631 30.9912 23.1045 30.8282 22.909 30.8282C22.7137 30.8282 22.5551 30.9912 22.5551 31.1919V36.9893C22.5551 37.1903 22.7137 37.3533 22.909 37.3533ZM24.6659 29.1558L30.013 26.2572C30.1854 26.1632 30.251 25.9437 30.16 25.7663C30.0692 25.5892 29.8556 25.5208 29.6829 25.6138L24.3358 28.5125C24.163 28.606 24.0968 28.826 24.1879 29.0038C24.2791 29.1814 24.4931 29.2494 24.6659 29.1558ZM22.8864 15.3321C22.2204 15.3321 21.6805 15.872 21.6805 16.5381V22.0774C21.6805 22.7435 22.2204 23.2834 22.8864 23.2834C23.5525 23.2834 24.0924 22.7435 24.0924 22.0774V16.5381C24.0924 15.872 23.5525 15.3321 22.8864 15.3321Z" fill="#292929"/>
</svg>
