<svg width="48" height="52" viewBox="0 0 48 52" fill="none" xmlns="http://www.w3.org/2000/svg">
<path fill-rule="evenodd" clip-rule="evenodd" d="M25.3337 15.3336C26.067 15.3336 26.6674 14.7332 26.6674 13.9999V11.3337C26.6674 10.6004 26.067 10 25.3337 10H22.6675C21.9343 10 21.3344 10.6004 21.3344 11.3337V13.9999C21.3344 14.7332 21.9342 15.3336 22.6675 15.3336H25.3337ZM31.5779 24.734L30.6666 21.9997V16.6664C30.6666 15.4281 29.8075 14.388 28.6574 14.0919C28.6066 15.8874 27.1393 17.3329 25.333 17.3329H22.6668C20.8607 17.3329 19.3931 15.8862 19.3423 14.0919C18.1928 14.3874 17.3335 15.4278 17.3335 16.6664V21.9994L16.4219 24.7337C16.1895 25.4295 16.2227 26.5576 16.4959 27.2373L16.8759 28.1876C19.2703 28.9404 21.7016 29.3388 24.1414 29.3388C26.5259 29.3388 28.8537 28.9532 31.1061 28.2345L31.5045 27.2373C31.7766 26.5579 31.8092 25.4298 31.5776 24.734H31.5779ZM26.6667 26.6669H21.3337V25.333H26.6667V26.6669ZM26.6667 23.9996H21.3337V22.6664H26.6667V23.9996ZM26.6667 21.333H21.3337V19.9994H26.6667V21.333ZM37.3328 24.6661H33.9997V29.3018C27.6745 32.0127 20.6429 32.0077 14.0002 29.2837V24.6661H10.6671V26.6669H12.0002V31.3331C14.193 32.3202 16.4273 33.0183 18.6669 33.4558V35.333L23 35.3333V37.3332L16.3338 38.6669C15.4131 38.6669 14.667 39.4113 14.667 40.3332C14.667 41.255 15.4131 42 16.3338 42C17.2403 42 17.9692 41.2759 17.9923 40.3747L22.6242 39.4478C22.4562 39.7079 22.3338 39.9997 22.3338 40.3332C22.3338 41.2528 23.0798 42 24 42C24.9208 42 25.6668 41.2528 25.6668 40.3332C25.6668 40 25.5441 39.7079 25.3761 39.4478L30.0077 40.3747C30.0314 41.2759 30.7605 42 31.6665 42C32.5869 42 33.3327 41.2553 33.3327 40.3332C33.3327 39.4113 32.5866 38.6669 31.6665 38.6669L25 37.3332V35.3333H29.3331V33.5002C31.626 33.0624 33.8631 32.3437 35.9998 31.3334V26.6669H37.3329L37.3328 24.6661Z" fill="#292929"/>
</svg>
