<svg width="38" height="52" viewBox="0 0 38 52" fill="none" xmlns="http://www.w3.org/2000/svg">
<path fill-rule="evenodd" clip-rule="evenodd" d="M27.0888 42H19.0004C18.847 42 18.7 41.94 18.5917 41.8328C18.4834 41.7254 18.4224 41.5803 18.4224 41.4286V10.5713C18.4224 10.2557 18.6812 10 19.0004 10H27.0888C27.2421 10 27.3891 10.06 27.4974 10.1672C27.6058 10.2746 27.6667 10.4197 27.6667 10.5714V41.4286C27.6667 41.5803 27.6058 41.7254 27.4974 41.8328C27.3891 41.94 27.2421 42 27.0888 42ZM21.8891 39.7144H24.2003C24.5193 39.7144 24.778 39.4585 24.778 39.143C24.778 38.8273 24.5193 38.5714 24.2003 38.5714H21.8891C21.5701 38.5714 21.3114 38.8273 21.3114 39.143C21.3114 39.4585 21.5701 39.7144 21.8891 39.7144ZM21.3114 37.4287H24.778C25.0972 37.4287 25.3557 37.1728 25.3557 36.8571C25.3557 36.5417 25.0972 36.2858 24.778 36.2858H21.3114C20.9922 36.2858 20.7337 36.5417 20.7337 36.8571C20.7337 37.1728 20.9922 37.4287 21.3114 37.4287ZM25.496 12.7185C24.846 12.0754 23.9641 11.7143 23.0447 11.7143C22.1255 11.715 21.2444 12.0766 20.5944 12.7195C19.9444 13.3621 19.579 14.2338 19.578 15.1429C19.578 16.0522 19.9432 16.9242 20.5934 17.5673C21.2434 18.2101 22.1253 18.5715 23.0447 18.5715C23.9641 18.5715 24.846 18.2101 25.496 17.5673C26.1462 16.9242 26.5113 16.0522 26.5113 15.1429C26.5113 14.2336 26.1462 13.3614 25.496 12.7185ZM25.496 20.7185C24.846 20.0757 23.9641 19.7143 23.0447 19.7143C22.1255 19.7153 21.2444 20.0769 20.5944 20.7195C19.9444 21.3624 19.579 22.2338 19.578 23.1429C19.578 24.0522 19.9432 24.9244 20.5934 25.5673C21.2434 26.2104 22.1253 26.5715 23.0447 26.5715C23.9641 26.5715 24.846 26.2104 25.496 25.5673C26.1462 24.9244 26.5113 24.0522 26.5113 23.1429C26.5113 22.2336 26.1462 21.3616 25.496 20.7185ZM25.496 28.7188C24.846 28.0757 23.9641 27.7145 23.0447 27.7145C22.1255 27.7155 21.2444 28.0769 20.5944 28.7197C19.9444 29.3626 19.579 30.2341 19.578 31.1431C19.578 32.0524 19.9432 32.9247 20.5934 33.5675C21.2434 34.2106 22.1253 34.5717 23.0447 34.5717C23.9641 34.5717 24.846 34.2106 25.496 33.5675C26.1462 32.9247 26.5113 32.0524 26.5113 31.1431C26.5113 30.2338 26.1462 29.3616 25.496 28.7188ZM24.6786 16.7593C24.2452 17.1879 23.6574 17.4287 23.0444 17.4287C22.4314 17.4287 21.8436 17.1878 21.4103 16.7593C20.9769 16.3305 20.7334 15.7491 20.7334 15.1431C20.7334 14.5368 20.9769 13.9554 21.4103 13.5268C21.8436 13.098 22.4314 12.8572 23.0444 12.8572C23.6574 12.8572 24.2452 13.098 24.6786 13.5268C25.1119 13.9554 25.3554 14.5368 25.3554 15.1431C25.3554 15.7491 25.1119 16.3305 24.6786 16.7593ZM23.0444 14.0001C22.7252 14.0001 22.4667 14.256 22.4667 14.5715V15.7144C22.4667 16.0301 22.7252 16.2858 23.0444 16.2858C23.3636 16.2858 23.6221 16.0301 23.6221 15.7144V14.5715C23.6221 14.256 23.3636 14.0001 23.0444 14.0001ZM12.6439 24.8572H14.9555V28.7545L12.6439 28.3733V24.8572ZM14.9555 33.2975V29.9129L12.6439 29.5317L12.6444 32.3174L14.9555 33.2975ZM14.9555 19.817L12.6433 20.1983V23.7144H14.9555V19.817ZM12.6427 16.2486L14.9554 15.1028L14.9555 18.6588L12.6432 19.0401L12.6427 16.2486ZM10.9112 37.4289L17.2669 41.0591V35.5196L15.3215 34.695L15.2966 34.6859L10.3336 32.5808V36.4396C10.3338 36.8477 10.5539 37.2245 10.9113 37.4288L10.9112 37.4289ZM12.1275 35.4592C12.1959 35.3233 12.3161 35.2202 12.4614 35.1722C12.6067 35.1241 12.7656 35.1353 12.9027 35.203L15.2137 36.346C15.4993 36.4871 15.6154 36.8303 15.4727 37.1127C15.33 37.3951 14.9828 37.5099 14.6972 37.3688L12.3862 36.2259C12.2491 36.1582 12.1447 36.0393 12.0961 35.8956C12.0477 35.7516 12.0588 35.5947 12.1275 35.4591L12.1275 35.4592ZM11.6586 15.6489C11.5464 15.8302 11.4876 16.0387 11.4888 16.2513L11.4887 31.8284L10.3333 31.3377V15.5613C10.3338 15.1531 10.5539 14.7761 10.911 14.5714L17.2667 10.9412V34.2783L16.1111 33.7885V15.1027C16.1106 14.7061 15.9024 14.3383 15.561 14.1305C15.2195 13.9226 14.7937 13.9049 14.4356 14.0834L12.1246 15.2263C11.9323 15.3212 11.771 15.4679 11.6586 15.6489ZM23.0444 33.4286C23.6574 33.4286 24.2452 33.1877 24.6786 32.7592C25.1119 32.3306 25.3554 31.7492 25.3554 31.1429C25.3554 30.5367 25.1119 29.9553 24.6786 29.5267C24.2452 29.0982 23.6574 28.8573 23.0444 28.8573C22.4314 28.8573 21.8436 29.0981 21.4103 29.5267C20.9769 29.9553 20.7334 30.5367 20.7334 31.1429C20.7334 31.7492 20.9769 32.3306 21.4103 32.7592C21.8436 33.1877 22.4314 33.4286 23.0444 33.4286ZM22.4667 30.5716C22.4667 30.2559 22.7252 30 23.0444 30C23.3636 30 23.6221 30.2559 23.6221 30.5716V31.7143C23.6221 32.03 23.3636 32.2859 23.0444 32.2859C22.7252 32.2859 22.4667 32.03 22.4667 31.7143V30.5716ZM24.6786 24.7592C24.2452 25.1881 23.6574 25.4289 23.0444 25.4289C22.4314 25.4289 21.8436 25.188 21.4103 24.7592C20.9769 24.3306 20.7334 23.7493 20.7334 23.143C20.7334 22.537 20.9769 21.9556 21.4103 21.5268C21.8436 21.0982 22.4314 20.8574 23.0444 20.8574C23.6574 20.8574 24.2452 21.0982 24.6786 21.5268C25.1119 21.9555 25.3554 22.537 25.3554 23.143C25.3554 23.7493 25.1119 24.3306 24.6786 24.7592ZM23.0444 22.0003C22.7252 22.0003 22.4667 22.256 22.4667 22.5717V23.7146C22.4667 24.03 22.7252 24.2859 23.0444 24.2859C23.3636 24.2859 23.6221 24.03 23.6221 23.7146V22.5717C23.6221 22.256 23.3636 22.0003 23.0444 22.0003Z" fill="#292929"/>
</svg>
