<svg width="61" height="52" viewBox="0 0 61 52" fill="none" xmlns="http://www.w3.org/2000/svg">
<path fill-rule="evenodd" clip-rule="evenodd" d="M50.5 10V34.0705L33.8531 34.0705L33.8527 37.5224L34.0966 37.7171L45.6895 40.792L44.0325 42L31.9938 39.6329C31.5435 39.8012 31.0373 39.8989 30.4993 39.8989C29.9364 39.8989 29.4075 39.794 28.9421 39.6101L16.9661 41.9495L15.3097 40.7416L26.9023 37.6676L27.1462 37.4729V34.0705H10.5V10H50.5ZM48.1471 12.334H12.8529V31.7366H48.1471V12.334ZM37.8094 24.8933V22.4518C37.8094 22.3113 37.8036 22.1825 37.7918 22.0654C37.7801 21.9425 37.7509 21.84 37.704 21.758C37.6572 21.6702 37.584 21.6029 37.4845 21.556C37.3908 21.5092 37.2561 21.4858 37.0805 21.4858C36.817 21.4858 36.5974 21.5385 36.4218 21.6439C36.252 21.7493 36.1671 21.8751 36.1671 22.0215V24.8933H35.1484V18.6842C35.2069 18.6725 35.3094 18.6667 35.4557 18.6667C35.5494 18.6667 35.6372 18.6754 35.7192 18.693C35.807 18.7106 35.8832 18.7457 35.9476 18.7984C36.012 18.8452 36.0617 18.9126 36.0969 19.0004C36.1378 19.0824 36.1583 19.1877 36.1583 19.3166V21.1433C36.2754 21.0086 36.4364 20.8915 36.6414 20.792C36.8521 20.6866 37.1156 20.6339 37.4318 20.6339C37.7538 20.6339 38.0055 20.6837 38.187 20.7832C38.3744 20.8827 38.5149 21.0174 38.6086 21.1872C38.7023 21.3511 38.7608 21.5385 38.7842 21.7493C38.8077 21.96 38.8194 22.1796 38.8194 22.4079V24.8933H37.8094ZM22.3834 24.8933H23.3934V19.1848C23.3524 19.1555 23.2938 19.1263 23.2177 19.097C23.1475 19.0677 23.0626 19.0531 22.963 19.0531C22.8576 19.0531 22.7552 19.0736 22.6556 19.1146C22.5561 19.1555 22.4507 19.2053 22.3395 19.2639L21.1275 19.905C20.9636 19.9986 20.8816 20.1187 20.8816 20.265C20.8816 20.3587 20.9167 20.4641 20.987 20.5812C21.0573 20.6925 21.1275 20.792 21.1978 20.8798L22.3834 20.2738V24.8933ZM18.1343 22.3728H19.5306V21.5034H18.1343V20.0455H17.2297V21.5121H15.8333V22.3816H17.2297V23.8307H18.1343V22.3728ZM26.1407 22.6538H27.7391V20.4758L26.1407 22.6538ZM27.7391 23.4442H25.2801V22.7329L27.5547 19.5712C27.6542 19.4366 27.7625 19.3195 27.8796 19.2199C27.9967 19.1204 28.1519 19.0706 28.3451 19.0706C28.4153 19.0706 28.4885 19.0824 28.5646 19.1058C28.6466 19.1233 28.711 19.1497 28.7579 19.1848V22.6714H29.0301C29.1999 22.6714 29.3141 22.7095 29.3726 22.7856C29.437 22.8617 29.4692 22.9612 29.4692 23.0842C29.4692 23.2305 29.4575 23.3506 29.4341 23.4442H28.7579V24.8933H27.7391V23.4442ZM32.5591 22.6538H30.9607L32.5591 20.4758V22.6538ZM30.1 23.4442H32.5591V24.8933H33.5778V23.4442H34.2541C34.2775 23.3506 34.2892 23.2305 34.2892 23.0842C34.2892 22.9612 34.257 22.8617 34.1926 22.7856C34.1341 22.7095 34.0199 22.6714 33.8501 22.6714H33.5778V19.1848C33.531 19.1497 33.4666 19.1233 33.3846 19.1058C33.3085 19.0824 33.2353 19.0706 33.1651 19.0706C32.9719 19.0706 32.8167 19.1204 32.6996 19.2199C32.5825 19.3195 32.4742 19.4366 32.3747 19.5712L30.1 22.7329V23.4442ZM39.6512 24.1995V24.8933H43.085C43.0792 24.6006 43.0294 24.3927 42.9357 24.2698C42.8479 24.141 42.6693 24.0766 42.4 24.0766H40.8543L42.9533 21.3628V21.0994C42.9533 20.9647 42.9153 20.8681 42.8391 20.8095C42.763 20.751 42.643 20.7217 42.4791 20.7217H40.3713C40.1254 20.7217 39.941 20.792 39.818 20.9325C39.7009 21.073 39.6424 21.275 39.6424 21.5385H41.7062L39.6512 24.1995Z" fill="#292929"/>
</svg>
