<svg width="66" height="52" viewBox="0 0 66 52" fill="none" xmlns="http://www.w3.org/2000/svg">
<path fill-rule="evenodd" clip-rule="evenodd" d="M17.9198 10.7849C17.9198 10.3462 18.2399 10 18.674 10H47.3267C47.7611 10 48.0806 10.3462 48.0808 10.7849V28.9778C48.0808 29.4161 47.761 29.7864 47.3267 29.7864H18.674C18.2396 29.7864 17.9198 29.4162 17.9198 28.9778V10.7849ZM46.5729 11.5457H39.7864C43.4177 12.5104 46.5412 14.057 46.5729 19.1558V11.5457ZM18.0122 31.1523C18.1557 30.8739 18.291 30.6114 18.5562 30.5423H18.5556C18.5853 30.5345 18.6132 30.5369 18.644 30.5395C18.6605 30.5408 18.678 30.5423 18.697 30.5423H47.3024C47.6724 30.5423 47.8229 30.8335 47.9898 31.1564C48.019 31.2128 48.0486 31.2702 48.0801 31.3272L55.6203 41.2152C55.8316 41.5984 55.277 42 54.8426 42H11.1574C10.7227 42 10.1685 41.5982 10.3797 41.2152L17.92 31.3272C17.9519 31.2693 17.9822 31.2104 18.0122 31.1523ZM36.6053 35.8882H30.2904H30.2904C30.2096 35.8882 30.1807 35.9458 30.1464 36.0141C30.1397 36.0274 30.1329 36.041 30.1254 36.0547L28.4525 39.0749C28.4059 39.1594 28.5215 39.2651 28.6174 39.2651H38.2547C38.3505 39.2651 38.4892 39.1594 38.4431 39.0749L36.7702 36.0547C36.7625 36.0407 36.7555 36.0268 36.7487 36.0133C36.7142 35.9453 36.6853 35.8882 36.6053 35.8882Z" fill="#292929"/>
</svg>
